<svg xmlns="http://www.w3.org/2000/svg" width="155" height="155" viewBox="0 0 155 155">
    <g fill="none" fill-rule="evenodd">
        <g>
            <g>
                <g>
                    <g>
                        <path fill="#A6A3E0" stroke="#A6A3E0" d="M41.464 104.231L41.464 93.642 47.693 91.956 52 82.357 47.693 77.843 55.99 69.734 61.454 74.29 70.808 69.734 72.682 63.147 83.547 63.147 84.967 69.734 94.391 74.29 98.635 69.734 109.244 77.843 104.554 82.357 109.244 91.956 114.946 93.642 114.946 105.877 89.37 105.877 89.37 96.824 84.967 89.553 76 88.209 69.447 91.956 65.803 96.824 65.803 102.691 65.803 105.877z" opacity=".788" transform="translate(-367.000000, -326.000000) translate(329.000000, 326.000000) translate(2.000000, 0.000000) translate(36.000000, 0.000000)"/>
                        <path fill="#040404" fill-rule="nonzero" d="M145.918 24.219h-7.266V9.082c0-5.008-4.074-9.082-9.082-9.082H25.43c-5.008 0-9.082 4.074-9.082 9.082v15.137H9.082C4.074 24.219 0 28.293 0 33.3v87.187c0 5.008 4.074 9.082 9.082 9.082h53.281v7.265h-5.759c-5.008 0-9.082 4.074-9.082 9.082v6.056c0 1.672 1.355 3.027 3.027 3.027h53.902c1.672 0 3.027-1.355 3.027-3.027v-6.056c0-5.008-4.074-9.082-9.082-9.082h-5.76v-7.265h53.282c5.008 0 9.082-4.074 9.082-9.082V33.3c0-5.008-4.074-9.082-9.082-9.082zm0 6.054c1.67 0 3.027 1.359 3.027 3.028v69.628h-10.293V30.273h7.266zM25.43 6.055h104.14c1.67 0 3.028 1.358 3.028 3.027v15.137H22.402V9.082c0-1.67 1.358-3.027 3.028-3.027zM9.082 30.273h7.266v22.702c0 1.672 1.355 3.028 3.027 3.028 1.672 0 3.027-1.356 3.027-3.028V30.273h110.196v72.656h-15.44v-9.976c0-1.672-1.355-3.028-3.027-3.028h-3.939c-.692-2.383-1.642-4.675-2.84-6.853l2.786-2.786c1.182-1.182 1.182-3.099 0-4.282l-9.19-9.19c-1.183-1.182-3.1-1.182-4.282 0L93.879 69.6c-2.177-1.198-4.47-2.148-6.853-2.84V62.82c0-1.672-1.355-3.027-3.027-3.027H71c-1.672 0-3.028 1.355-3.028 3.027v3.939c-2.383.692-4.675 1.642-6.853 2.84l-2.786-2.787c-1.182-1.181-3.1-1.181-4.282 0l-9.19 9.191c-1.183 1.183-1.183 3.1 0 4.282l2.786 2.786c-1.198 2.178-2.148 4.47-2.84 6.853h-3.939c-1.672 0-3.027 1.356-3.027 3.028v9.976h-15.44V80.222c0-1.672-1.355-3.028-3.027-3.028-1.672 0-3.027 1.356-3.027 3.028v22.707H6.055V33.301c0-1.67 1.358-3.028 3.027-3.028zM53.598 80.46l-2.314-2.314 4.91-4.91 2.313 2.314c1.01 1.01 2.59 1.177 3.788.4 2.865-1.858 6.006-3.16 9.337-3.87 1.398-.298 2.397-1.533 2.397-2.961v-3.27h6.943v3.27c0 1.428.999 2.663 2.396 2.96 3.33.71 6.472 2.013 9.337 3.87 1.2.778 2.778.611 3.788-.399l2.314-2.314 4.91 4.91-2.314 2.314c-1.01 1.01-1.177 2.589-.4 3.788 1.858 2.865 3.16 6.006 3.87 9.337.298 1.397 1.533 2.396 2.961 2.396h3.27v6.95H92.23c.27-1.136.409-2.303.409-3.478 0-8.348-6.792-15.139-15.139-15.139s-15.139 6.792-15.139 15.139c0 1.175.14 2.342.409 3.477H43.896V95.98h3.27c1.429 0 2.663-.999 2.961-2.396.71-3.331 2.012-6.472 3.87-9.337.777-1.199.61-2.778-.4-3.788zm14.818 18.993c0-5.009 4.075-9.084 9.084-9.084 5.009 0 9.084 4.075 9.084 9.084 0 1.195-.242 2.376-.701 3.477H69.117c-.459-1.1-.7-2.282-.7-3.477zm33.007 46.465v3.028H53.577v-3.028c0-1.67 1.358-3.028 3.027-3.028h41.792c1.67 0 3.027 1.358 3.027 3.028zm-14.841-9.082H68.418v-7.265h18.164v7.265zm59.336-13.32H9.082c-1.67 0-3.027-1.358-3.027-3.027v-11.504h142.89v11.504c0 1.669-1.358 3.027-3.027 3.027z" transform="translate(-367.000000, -326.000000) translate(329.000000, 326.000000) translate(2.000000, 0.000000) translate(36.000000, 0.000000)"/>
                        <path fill="#040404" fill-rule="nonzero" d="M86.582 18.164h32.695c1.672 0 3.028-1.355 3.028-3.027 0-1.672-1.356-3.028-3.028-3.028H86.582c-1.672 0-3.027 1.356-3.027 3.028s1.355 3.027 3.027 3.027z" transform="translate(-367.000000, -326.000000) translate(329.000000, 326.000000) translate(2.000000, 0.000000) translate(36.000000, 0.000000)"/>
                        <path fill="#A6A3E0" fill-rule="nonzero" d="M49.043 18.164c.796 0 1.577-.324 2.14-.887.563-.563.887-1.344.887-2.14s-.324-1.578-.887-2.14c-.563-.564-1.344-.888-2.14-.888s-1.577.324-2.14.887c-.563.563-.887 1.345-.887 2.14 0 .797.324 1.578.887 2.141s1.344.887 2.14.887zM35.723 18.164c.796 0 1.577-.324 2.14-.887.563-.563.887-1.344.887-2.14s-.324-1.578-.887-2.14c-.563-.564-1.344-.888-2.14-.888-.797 0-1.578.324-2.14.887-.564.563-.888 1.345-.888 2.14 0 .797.324 1.578.887 2.141s1.344.887 2.14.887zM62.363 18.164c.796 0 1.578-.324 2.14-.887.564-.563.888-1.344.888-2.14s-.324-1.578-.887-2.14c-.563-.564-1.345-.888-2.14-.888-.797 0-1.578.324-2.141.887s-.887 1.345-.887 2.14c0 .797.324 1.578.887 2.141s1.344.887 2.14.887z" transform="translate(-367.000000, -326.000000) translate(329.000000, 326.000000) translate(2.000000, 0.000000) translate(36.000000, 0.000000)"/>
                        <path fill="#040404" fill-rule="nonzero" d="M33.906 44.804h7.205c1.672 0 3.027-1.355 3.027-3.027 0-1.672-1.355-3.028-3.027-3.028h-7.205c-1.672 0-3.027 1.356-3.027 3.028s1.355 3.027 3.027 3.027zM54.431 44.804h27.772c1.672 0 3.028-1.355 3.028-3.027 0-1.672-1.356-3.028-3.028-3.028H54.431c-1.672 0-3.027 1.356-3.027 3.028s1.355 3.027 3.027 3.027zM33.906 59.335h17.559c1.672 0 3.027-1.356 3.027-3.028s-1.355-3.027-3.027-3.027H33.906c-1.672 0-3.027 1.355-3.027 3.027 0 1.672 1.355 3.028 3.027 3.028zM95.524 44.804h25.57c1.672 0 3.027-1.355 3.027-3.027 0-1.672-1.355-3.028-3.027-3.028h-25.57c-1.672 0-3.028 1.356-3.028 3.028s1.356 3.027 3.028 3.027zM121.094 53.28h-20.72c-1.671 0-3.026 1.355-3.026 3.027 0 1.672 1.355 3.028 3.027 3.028h20.719c1.672 0 3.027-1.356 3.027-3.028s-1.355-3.027-3.027-3.027z" transform="translate(-367.000000, -326.000000) translate(329.000000, 326.000000) translate(2.000000, 0.000000) translate(36.000000, 0.000000)"/>
                        <path fill="#A6A3E0" fill-rule="nonzero" d="M19.375 69.626c.796 0 1.577-.324 2.14-.887.563-.563.887-1.344.887-2.14 0-.797-.324-1.578-.887-2.14-.563-.564-1.344-.888-2.14-.888s-1.577.324-2.14.887c-.563.563-.887 1.344-.887 2.14 0 .797.324 1.578.887 2.14.563.564 1.344.888 2.14.888z" transform="translate(-367.000000, -326.000000) translate(329.000000, 326.000000) translate(2.000000, 0.000000) translate(36.000000, 0.000000)"/>
                    </g>
                </g>
            </g>
        </g>
    </g>
</svg>
