<svg xmlns="http://www.w3.org/2000/svg" width="136" height="141" viewBox="0 0 136 141">
    <g fill="none" fill-rule="evenodd">
        <g>
            <g>
                <g transform="translate(-769.000000, -333.000000) translate(723.000000, 333.000000) translate(46.000000, 0.000000)">
                    <path fill="#040404" fill-rule="nonzero" d="M9.711 9.703H14.557V14.555H9.711zM19.403 9.703H24.249V14.555H19.403zM29.096 9.703H33.942V14.555H29.096z"/>
                    <circle cx="104.5" cy="108.5" r="18.5" fill="#A6A3E0" opacity=".795"/>
                    <path fill="#040404" fill-rule="nonzero" d="M104.214 87.329c-12.044 0-21.809 9.775-21.809 21.832 0 12.058 9.765 21.833 21.809 21.833s21.808-9.775 21.808-21.833c-.014-12.051-9.77-21.817-21.808-21.832zm0 38.813c-9.368 0-16.962-7.603-16.962-16.98 0-9.379 7.594-16.981 16.962-16.981 9.368 0 16.962 7.602 16.962 16.98-.01 9.374-7.598 16.97-16.962 16.98z"/>
                    <path fill="#000" fill-rule="nonzero" d="M133.298 97.11c-1.665-4.015-4.143-7.641-7.276-10.652V9.703c0-5.359-4.34-9.703-9.692-9.703H9.71C4.358 0 .019 4.344.019 9.703v101.884c0 5.359 4.34 9.703 9.693 9.703h65.425c6.67 16.079 25.097 23.7 41.158 17.023s23.674-25.124 17.004-41.203zM4.864 9.703c0-2.68 2.17-4.851 4.847-4.851H116.33c2.676 0 4.846 2.172 4.846 4.851v9.703H4.864V9.703zM73.592 116.44H9.711c-2.677 0-4.847-2.172-4.847-4.852V24.258h116.312V82.63c-14.574-9.425-34.021-5.238-43.436 9.352-4.671 7.24-6.17 16.08-4.148 24.457zm30.622 19.406c-14.721 0-26.655-11.947-26.655-26.684 0-14.737 11.934-26.684 26.655-26.684 14.72 0 26.655 11.947 26.655 26.684-.018 14.73-11.941 26.667-26.655 26.684z"/>
                    <path fill="#040404" fill-rule="nonzero" d="M113.405 101.382l-11.614 11.627-5.557-5.563-3.426 3.43 7.27 7.278c.946.947 2.48.947 3.426 0l13.327-13.342-3.426-3.43zM32.229 27.395l-4.136 4.14H14.557c-1.338 0-2.423 1.087-2.423 2.426v14.555c0 1.34 1.085 2.426 2.423 2.426h14.539c1.338 0 2.423-1.086 2.423-2.426v-13.55l4.136-4.141-3.426-3.43zM26.673 46.09H16.98v-9.703h6.266l-3.133 3.137 3.427 3.43 3.133-3.137v6.273z"/>
                    <path fill="#A6A3E0" fill-rule="nonzero" d="M41.212 31.535H46.05800000000001V36.387H41.212z"/>
                    <path fill="#040404" fill-rule="nonzero" d="M50.904 31.535H113.906V36.387H50.904zM41.212 41.239H104.214V46.090999999999994H41.212zM32.229 56.504l-4.136 4.141H14.557c-1.338 0-2.423 1.086-2.423 2.426v14.555c0 1.34 1.085 2.426 2.423 2.426h14.539c1.338 0 2.423-1.087 2.423-2.426v-13.55l4.136-4.142-3.426-3.43zM26.673 75.2H16.98v-9.703h6.266l-3.133 3.136 3.427 3.43 3.133-3.136V75.2z"/>
                    <path fill="#A6A3E0" fill-rule="nonzero" d="M41.212 60.645H46.05800000000001V65.497H41.212z"/>
                    <path fill="#040404" fill-rule="nonzero" d="M50.904 60.645H113.906V65.497H50.904zM41.212 70.348H92.09800000000001V75.2H41.212zM32.229 85.614l-4.136 4.14H14.557c-1.338 0-2.423 1.087-2.423 2.427v14.554c0 1.34 1.085 2.426 2.423 2.426h14.539c1.338 0 2.423-1.086 2.423-2.426v-13.55l4.136-4.14-3.426-3.431zm-5.556 18.696H16.98v-9.704h6.266l-3.133 3.137 3.427 3.43 3.133-3.136v6.273z"/>
                    <path fill="#A6A3E0" fill-rule="nonzero" d="M41.212 89.755H46.05800000000001V94.607H41.212z"/>
                    <path fill="#040404" fill-rule="nonzero" d="M50.904 89.755H70.289V94.607H50.904zM41.212 99.458H67.867V104.31H41.212z"/>
                </g>
            </g>
        </g>
    </g>
</svg>
