<svg xmlns="http://www.w3.org/2000/svg" width="22" height="22" viewBox="0 0 22 22">
    <g fill="none" fill-rule="evenodd">
        <g>
            <g>
                <g>
                    <path fill="#7545C7" d="M21.155 1.153c-.915-.714-2.207-.494-2.872.488l-7.218 10.67-4.137-3.227c-.914-.713-2.206-.493-2.87.489-.665.982-.46 2.37.454 3.083l5.8 4.525c.915.713 2.207.493 2.871-.489L21.61 4.236c.664-.982.46-2.37-.455-3.083" transform="translate(-900.000000, -345.000000) translate(899.000000, 310.000000) translate(1.000000, 35.000000)"/>
                    <path fill="#A6A3E0" d="M20.828 6.054l-1.734 2.537c.228.764.35 1.572.35 2.409 0 4.656-3.788 8.445-8.444 8.445-4.656 0-8.445-3.789-8.445-8.445 0-4.656 3.789-8.445 8.445-8.445 1.742 0 3.363.53 4.71 1.438l1.39-2.15c-.572-.38-1.18-.708-1.818-.978C13.925.291 12.484 0 11 0S8.075.291 6.718.865c-1.31.554-2.486 1.347-3.496 2.357-1.01 1.01-1.803 2.186-2.357 3.496C.291 8.075 0 9.516 0 11s.291 2.925.865 4.282c.554 1.31 1.347 2.486 2.357 3.496 1.01 1.01 2.186 1.803 3.496 2.357C8.075 21.71 9.516 22 11 22s2.925-.291 4.282-.865c1.31-.554 2.486-1.347 3.496-2.357 1.01-1.01 1.803-2.186 2.357-3.496C21.71 13.925 22 12.484 22 11s-.291-2.925-.865-4.282c-.095-.225-.198-.446-.307-.664" transform="translate(-900.000000, -345.000000) translate(899.000000, 310.000000) translate(1.000000, 35.000000)"/>
                </g>
            </g>
        </g>
    </g>
</svg>
