<svg width="15" height="14" viewBox="0 0 15 14" fill="none" xmlns="http://www.w3.org/2000/svg">
    <g clip-path="url(#clip0_875_11244)">
        <path d="M5.96973 7.58299C6.22339 7.9179 6.54703 8.19501 6.91868 8.39554C7.29033 8.59606 7.7013 8.71531 8.12372 8.74518C8.54614 8.77506 8.97012 8.71487 9.36691 8.56869C9.7637 8.42252 10.124 8.19378 10.4234 7.89799L12.1955 6.14799C12.7334 5.5979 13.0311 4.86114 13.0244 4.0964C13.0177 3.33166 12.7071 2.60012 12.1595 2.05935C11.6119 1.51858 10.8712 1.21183 10.0968 1.20519C9.32242 1.19854 8.57639 1.49253 8.01937 2.02382L7.00341 3.02132" stroke="#857F72" stroke-linecap="round" stroke-linejoin="round"/>
        <path d="M8.3331 6.41672C8.07943 6.08181 7.7558 5.80469 7.38415 5.60417C7.0125 5.40364 6.60153 5.2844 6.17911 5.25452C5.75669 5.22465 5.33271 5.28484 4.93592 5.43101C4.53912 5.57719 4.1788 5.80593 3.8794 6.10172L2.10737 7.85172C1.56939 8.40181 1.2717 9.13856 1.27843 9.9033C1.28516 10.668 1.59577 11.3996 2.14335 11.9404C2.69093 12.4811 3.43167 12.7879 4.20604 12.7945C4.98041 12.8012 5.72644 12.5072 6.28345 11.9759L7.29351 10.9784" stroke="#857F72" stroke-linecap="round" stroke-linejoin="round"/>
    </g>
    <defs>
        <clipPath id="clip0_875_11244">
            <rect width="14.1762" height="14" fill="white" transform="translate(0.0634766)"/>
        </clipPath>
    </defs>
</svg>
