<svg width="117" height="128" viewBox="0 0 117 128" fill="none" xmlns="http://www.w3.org/2000/svg">
<g clip-path="url(#clip0_1459_3906)">
<path d="M102.79 22.1201L98.2397 19.4301L61.6197 56.5501C60.5973 56.0917 59.4901 55.8532 58.3697 55.8501C56.6447 55.8477 54.966 56.4078 53.588 57.4456C52.2101 58.4833 51.2081 59.9421 50.7341 61.6007C50.26 63.2593 50.3397 65.0272 50.961 66.6364C51.5824 68.2457 52.7115 69.6084 54.1772 70.518C55.6429 71.4276 57.3652 71.8345 59.083 71.6769C60.8008 71.5193 62.4204 70.806 63.6962 69.6449C64.9719 68.4838 65.8343 66.9385 66.1526 65.2431C66.4708 63.5477 66.2276 61.7947 65.4597 60.2501L102.79 22.1101V22.1201Z" fill="white"/>
<path d="M58.1797 90.61C52.8396 90.61 47.6194 89.0265 43.1793 86.0597C38.7392 83.0929 35.2785 78.8761 33.235 73.9425C31.1914 69.0088 30.6567 63.58 31.6985 58.3426C32.7403 53.1051 35.3118 48.2941 39.0878 44.5181C42.8638 40.7421 47.6748 38.1706 52.9123 37.1288C58.1497 36.087 63.5785 36.6217 68.5121 38.6653C73.4458 40.7088 77.6626 44.1695 80.6294 48.6096C83.5962 53.0497 85.1797 58.2699 85.1797 63.61C85.1612 70.7652 82.3107 77.622 77.2512 82.6815C72.1917 87.741 65.3349 90.5915 58.1797 90.61ZM58.1797 43.61C54.2412 43.608 50.3905 44.7736 47.1142 46.9595C43.8379 49.1454 41.2832 52.2534 39.7728 55.8908C38.2624 59.5282 37.8641 63.5317 38.6284 67.3954C39.3926 71.259 41.2851 74.8094 44.0665 77.5979C46.848 80.3863 50.3936 82.2877 54.2554 83.0616C58.1171 83.8356 62.1216 83.4474 65.7628 81.9461C69.4039 80.4448 72.5184 77.8979 74.7125 74.6271C76.9065 71.3563 78.0818 67.5085 78.0897 63.57C78.0818 58.2911 75.9819 53.2304 72.25 49.4967C68.5182 45.763 63.4586 43.6606 58.1797 43.65V43.61Z" fill="white"/>
<path d="M58.1798 108.83C54.0383 108.833 49.9688 107.747 46.3798 105.68L27.5998 94.8401C24.0168 92.7656 21.0411 89.7868 18.9703 86.2016C16.8996 82.6164 15.8063 78.5504 15.7998 74.4101V52.7201C15.8063 48.5798 16.8996 44.5138 18.9703 40.9286C21.0411 37.3434 24.0168 34.3646 27.5998 32.2901L46.3798 21.4501C49.9682 19.3865 54.0353 18.3004 58.1748 18.3004C62.3143 18.3004 66.3814 19.3865 69.9698 21.4501L88.7498 32.2901C92.3328 34.3646 95.3085 37.3434 97.3793 40.9286C99.45 44.5138 100.543 48.5798 100.55 52.7201V74.4101C100.543 78.5504 99.45 82.6164 97.3793 86.2016C95.3085 89.7868 92.3328 92.7656 88.7498 94.8401L69.9998 105.68C66.4051 107.751 62.3282 108.837 58.1798 108.83ZM58.1798 25.4301C55.3089 25.4347 52.489 26.1896 49.9998 27.6201L31.1598 38.4701C28.6617 39.9182 26.587 41.9962 25.1429 44.4966C23.6988 46.9971 22.9357 49.8326 22.9298 52.7201V74.4101C22.9357 77.2976 23.6988 80.1331 25.1429 82.6335C26.587 85.134 28.6617 87.212 31.1598 88.6601L49.9998 99.5101C52.5037 100.95 55.3415 101.708 58.2298 101.708C61.1181 101.708 63.9559 100.95 66.4598 99.5101L85.1898 88.6601C87.6879 87.212 89.7626 85.134 91.2067 82.6335C92.6508 80.1331 93.4139 77.2976 93.4198 74.4101V52.7201C93.4139 49.8326 92.6508 46.9971 91.2067 44.4966C89.7626 41.9962 87.6879 39.9182 85.1898 38.4701L66.4098 27.6201C63.9048 26.1838 61.0673 25.4287 58.1798 25.4301Z" fill="white"/>
<path d="M58.5 127.78C54.3585 127.783 50.289 126.697 46.7 124.63L11.79 104.47C8.2096 102.396 5.23632 99.4183 3.16735 95.8349C1.09839 92.2515 0.00621477 88.1878 0 84.05L0 43.73C0.00722102 39.5924 1.09982 35.5292 3.16868 31.9459C5.23755 28.3627 8.21028 25.385 11.79 23.31L46.7 3.15004C50.2884 1.08641 54.3555 0.000366211 58.495 0.000366211C62.6345 0.000366211 66.7016 1.08641 70.29 3.15004L105.21 23.31C108.79 25.385 111.762 28.3627 113.831 31.9459C115.9 35.5292 116.993 39.5924 117 43.73V84.05C116.993 88.1876 115.9 92.2509 113.831 95.8341C111.762 99.4174 108.79 102.395 105.21 104.47L70.29 124.63C66.7052 126.698 62.6386 127.785 58.5 127.78ZM58.5 7.13004C55.6108 7.12609 52.7718 7.885 50.27 9.33004L15.36 29.48C12.8605 30.9266 10.7847 33.0043 9.34042 35.5051C7.8961 38.0059 7.13387 40.8421 7.13 43.73V84.05C7.13387 86.938 7.8961 89.7742 9.34042 92.275C10.7847 94.7758 12.8605 96.8535 15.36 98.3L50.27 118.46C52.7739 119.9 55.6117 120.658 58.5 120.658C61.3883 120.658 64.2261 119.9 66.73 118.46L101.64 98.3C104.139 96.8535 106.215 94.7758 107.66 92.275C109.104 89.7742 109.866 86.938 109.87 84.05V43.73C109.866 40.8421 109.104 38.0059 107.66 35.5051C106.215 33.0043 104.139 30.9266 101.64 29.48L66.73 9.33004C64.2278 7.88588 61.389 7.12704 58.5 7.13004Z" fill="white"/>
</g>
<defs>
<clipPath id="clip0_1459_3906">
<rect width="117" height="128" fill="white"/>
</clipPath>
</defs>
</svg>
