<svg width="514" height="128" viewBox="0 0 514 128" fill="none" xmlns="http://www.w3.org/2000/svg">
<g clip-path="url(#clip0_1459_3829)">
<path d="M171.24 70.13C168.984 69.1757 166.665 68.3771 164.3 67.74C161.999 67.186 159.756 66.416 157.6 65.44C156.808 65.1039 156.136 64.5365 155.672 63.812C155.208 63.0876 154.974 62.2399 155 61.38C154.959 60.8101 155.035 60.2379 155.223 59.6982C155.41 59.1584 155.705 58.6623 156.09 58.24C156.871 57.4975 157.839 56.9794 158.89 56.74C160.032 56.4613 161.204 56.3203 162.38 56.32C164.299 56.3904 166.175 56.9074 167.86 57.83C169.845 58.8375 171.661 60.1501 173.24 61.72L173.51 61.99L179.07 55.87L178.87 55.62C176.766 53.0491 174 51.1023 170.87 49.99C168.036 48.9 165.035 48.3079 162 48.24C159.229 48.2392 156.486 48.7899 153.93 49.86C151.533 50.8509 149.425 52.4295 147.8 54.45C146.211 56.493 145.377 59.0226 145.44 61.61C145.291 64.4402 146.164 67.2296 147.9 69.47C149.553 71.4042 151.645 72.916 154 73.88C156.391 74.8849 158.842 75.7399 161.34 76.44C162.98 76.84 164.5 77.28 165.87 77.76C167.024 78.1509 168.089 78.7698 169 79.58C169.394 79.9683 169.7 80.4377 169.895 80.9557C170.09 81.4737 170.17 82.0279 170.13 82.58C170.183 83.7257 169.805 84.8498 169.07 85.73C168.342 86.5111 167.431 87.0988 166.42 87.44C165.407 87.7929 164.342 87.9754 163.27 87.98C160.817 88.0568 158.381 87.5531 156.16 86.51C154.19 85.4786 152.438 84.0762 151 82.38L150.76 82.1L144.18 87.74L144.4 88.02C146.527 90.825 149.405 92.9709 152.7 94.21C155.835 95.3825 159.153 95.9886 162.5 96C165.248 95.9998 167.968 95.449 170.5 94.38C172.954 93.3652 175.109 91.7406 176.76 89.66C178.404 87.5259 179.269 84.8934 179.21 82.2C179.21 78.85 178.44 76.2 176.93 74.34C175.413 72.4731 173.454 71.0155 171.23 70.1L171.24 70.13Z" fill="#653CAD"/>
<path d="M216.94 51C213.759 49.1003 210.115 48.1142 206.41 48.15C202.345 48.125 198.339 49.1332 194.77 51.08C191.2 53.053 188.234 55.9602 186.19 59.49C183.956 63.5147 182.854 68.0692 183 72.67C182.939 76.8705 183.995 81.0119 186.06 84.67C188.068 88.1767 191.006 91.0597 194.55 93C198.06 94.816 201.925 95.8397 205.873 95.9986C209.821 96.1576 213.756 95.448 217.4 93.92C220.189 92.8153 222.762 91.2277 225 89.23H225.64L220.64 81.85L220.33 82.12C218.835 83.3724 217.24 84.4996 215.56 85.49C213.244 86.7397 210.629 87.3311 208 87.2C204.172 87.3464 200.419 86.1073 197.43 83.71C194.743 81.4236 193.012 78.2117 192.58 74.71H227.15L227.24 70.55C227.327 66.4934 226.362 62.4834 224.44 58.91C222.677 55.6611 220.091 52.9331 216.94 51ZM217.5 66.84H193C193.81 63.35 195.4 60.84 197.73 59.38C200.347 57.8057 203.357 57.0048 206.41 57.07C208.208 57.0641 209.981 57.4784 211.59 58.28C213.169 59.0785 214.539 60.2362 215.59 61.66C216.673 63.1159 217.318 64.8504 217.45 66.66L217.5 66.84Z" fill="#653CAD"/>
<path d="M266.17 51.32C262.532 49.3126 258.445 48.2598 254.29 48.2598C250.135 48.2598 246.048 49.3126 242.41 51.32C238.903 53.3367 236 56.254 234 59.77C231.885 63.5448 230.812 67.8139 230.89 72.14C230.812 76.4661 231.885 80.7352 234 84.51C235.991 88.0427 238.896 90.9751 242.41 93C246.048 95.0073 250.135 96.0602 254.29 96.0602C258.445 96.0602 262.532 95.0073 266.17 93C269.673 90.9787 272.575 88.0624 274.58 84.55C276.693 80.7746 277.766 76.5059 277.69 72.18C277.766 67.8541 276.693 63.5854 274.58 59.81C272.581 56.2829 269.678 53.3523 266.17 51.32ZM267.9 72.15C268.006 74.8514 267.413 77.5344 266.18 79.94C265.049 82.124 263.354 83.9647 261.27 85.27C259.167 86.5651 256.739 87.2346 254.27 87.2C251.802 87.2258 249.376 86.5571 247.27 85.27C245.167 83.9749 243.456 82.1326 242.32 79.94C241.085 77.5313 240.492 74.8447 240.6 72.14C240.487 69.4092 241.079 66.6955 242.32 64.26C243.449 62.0728 245.165 60.2435 247.276 58.977C249.387 57.7106 251.808 57.0572 254.27 57.09C256.733 57.0512 259.157 57.7024 261.27 58.97C263.356 60.2507 265.054 62.0762 266.18 64.25C267.42 66.6855 268.012 69.3992 267.9 72.13V72.15Z" fill="#653CAD"/>
<path d="M330.29 49.16C328.685 48.4838 326.949 48.1762 325.21 48.26C322.235 48.2903 319.344 49.2481 316.94 51C314.83 52.4539 313.07 54.3602 311.79 56.58V49.21H302.09V95.21H311.79V69.83C311.743 67.7049 312.335 65.6146 313.49 63.83C314.579 62.1867 316.055 60.8369 317.79 59.9C319.385 59.0084 321.173 58.5209 323 58.48C323.855 58.4776 324.707 58.5749 325.54 58.77C326.23 58.9285 326.901 59.1633 327.54 59.47L327.96 59.68L330.46 49.29L330.2 49.16H330.29Z" fill="#653CAD"/>
<path d="M365.51 54.5C364.018 52.8566 362.273 51.4624 360.34 50.37C357.744 48.924 354.811 48.1925 351.84 48.25C347.786 48.1813 343.789 49.2185 340.28 51.25C336.892 53.2656 334.124 56.1753 332.28 59.66C330.313 63.471 329.327 67.7121 329.41 72C329.332 76.2984 330.292 80.5522 332.21 84.4C333.94 87.8544 336.556 90.7876 339.79 92.9C342.939 94.9438 346.617 96.0214 350.37 96C353.755 96.0759 357.093 95.1955 360 93.46C362.081 92.233 363.954 90.6837 365.55 88.87V95.15H375.25V49.21H365.55V54.5H365.51ZM364.17 79.78C363.124 81.9629 361.502 83.8194 359.48 85.15C357.393 86.4882 354.959 87.1836 352.48 87.15C350.044 87.191 347.653 86.4937 345.62 85.15C343.598 83.8194 341.976 81.9629 340.93 79.78C339.78 77.3714 339.205 74.7286 339.25 72.06C339.206 69.4074 339.781 66.7812 340.93 64.39C341.982 62.2347 343.604 60.4086 345.62 59.11C347.675 57.8168 350.062 57.1497 352.49 57.19C354.967 57.1702 357.397 57.8645 359.49 59.19C361.504 60.5154 363.127 62.3557 364.19 64.52C365.336 66.8838 365.911 69.4834 365.87 72.11C365.903 74.7774 365.328 77.4173 364.19 79.83L364.17 79.78Z" fill="#653CAD"/>
<path d="M416.08 54.3C414.442 52.6636 412.543 51.3117 410.46 50.3C407.69 48.9397 404.636 48.2543 401.55 48.3C397.65 48.2506 393.816 49.3157 390.5 51.37C387.202 53.4516 384.512 56.3663 382.7 59.82C380.723 63.6352 379.73 67.8837 379.81 72.18C379.733 76.4632 380.726 80.6979 382.7 84.5C384.517 87.9917 387.243 90.9283 390.59 93C393.976 95.0309 397.863 96.0703 401.81 96C404.965 96.0485 408.075 95.2434 410.81 93.67C412.793 92.5538 414.582 91.1255 416.11 89.44V95.14H425.72V30.68H416.11V54.29L416.08 54.3ZM414.74 80.09C413.705 82.329 412.081 84.2441 410.04 85.63C407.958 86.9792 405.521 87.6757 403.04 87.63C400.574 87.6868 398.149 86.989 396.09 85.63C394.043 84.2405 392.406 82.3274 391.35 80.09C390.21 77.5911 389.62 74.8766 389.62 72.13C389.62 69.3834 390.21 66.6689 391.35 64.17C392.415 61.9494 394.051 60.0514 396.09 58.67C398.154 57.3219 400.575 56.6251 403.04 56.67C405.521 56.6249 407.958 57.3213 410.04 58.67C412.077 60.0431 413.701 61.9443 414.74 64.17C415.855 66.6758 416.43 69.3876 416.43 72.13C416.43 74.8724 415.855 77.5842 414.74 80.09Z" fill="#653CAD"/>
<path d="M466 54.5C464.506 52.8543 462.757 51.4597 460.82 50.37C458.224 48.924 455.291 48.1925 452.32 48.25C448.266 48.1813 444.27 49.2185 440.76 51.25C437.372 53.2656 434.604 56.1753 432.76 59.66C430.807 63.4746 429.834 67.7155 429.93 72C429.852 76.2984 430.813 80.5522 432.73 84.4C434.46 87.8544 437.076 90.7876 440.31 92.9C443.459 94.9438 447.137 96.0214 450.89 96C454.259 96.0634 457.579 95.1799 460.47 93.45C462.543 92.2243 464.41 90.6785 466 88.87V95.15H475.7V49.21H466V54.5ZM464.7 79.78C463.651 81.9641 462.026 83.8208 460 85.15C457.913 86.4882 455.479 87.1836 453 87.15C450.564 87.191 448.173 86.4937 446.14 85.15C444.118 83.817 442.494 81.9613 441.44 79.78C440.29 77.3714 439.715 74.7286 439.76 72.06C439.716 69.4074 440.292 66.7812 441.44 64.39C442.492 62.2347 444.114 60.4086 446.13 59.11C448.185 57.8168 450.572 57.1497 453 57.19C455.477 57.1702 457.908 57.8645 460 59.19C462.015 60.5154 463.637 62.3557 464.7 64.52C465.846 66.8838 466.421 69.4834 466.38 72.11C466.413 74.7774 465.838 77.4173 464.7 79.83V79.78Z" fill="#653CAD"/>
<path d="M513 49.16C511.395 48.4838 509.659 48.1762 507.92 48.26C504.948 48.2923 502.061 49.2501 499.66 51C497.549 52.4539 495.79 54.3602 494.51 56.58V49.21H484.81V95.21H494.51V69.83C494.462 67.7049 495.055 65.6146 496.21 63.83C497.298 62.1867 498.775 60.8369 500.51 59.9C502.12 59.0161 503.923 58.5421 505.76 58.52C506.615 58.5176 507.467 58.6149 508.3 58.81C508.99 58.9685 509.661 59.2033 510.3 59.51L510.72 59.72L513.22 49.33L512.96 49.2L513 49.16Z" fill="#653CAD"/>
<path d="M102.79 22.12L98.2397 19.43L61.6197 56.55C60.5973 56.0917 59.4901 55.8532 58.3697 55.85C56.6447 55.8476 54.966 56.4078 53.588 57.4455C52.2101 58.4833 51.2081 59.9421 50.7341 61.6006C50.26 63.2592 50.3397 65.0272 50.961 66.6364C51.5824 68.2456 52.7115 69.6083 54.1772 70.5179C55.6429 71.4275 57.3652 71.8344 59.083 71.6768C60.8008 71.5193 62.4204 70.8059 63.6962 69.6448C64.9719 68.4838 65.8343 66.9384 66.1526 65.243C66.4708 63.5476 66.2276 61.7947 65.4597 60.25L102.79 22.11V22.12Z" fill="#653CAD"/>
<path d="M58.1797 90.61C52.8396 90.61 47.6194 89.0265 43.1793 86.0597C38.7392 83.0929 35.2785 78.8761 33.235 73.9425C31.1914 69.0088 30.6567 63.58 31.6985 58.3426C32.7403 53.1051 35.3118 48.2941 39.0878 44.5181C42.8638 40.7421 47.6748 38.1706 52.9123 37.1288C58.1497 36.087 63.5785 36.6217 68.5121 38.6653C73.4458 40.7088 77.6626 44.1695 80.6294 48.6096C83.5962 53.0497 85.1797 58.2699 85.1797 63.61C85.1612 70.7652 82.3107 77.622 77.2512 82.6815C72.1917 87.741 65.3349 90.5915 58.1797 90.61ZM58.1797 43.61C54.2412 43.608 50.3905 44.7736 47.1142 46.9595C43.8379 49.1454 41.2832 52.2534 39.7728 55.8908C38.2624 59.5282 37.8641 63.5317 38.6284 67.3954C39.3926 71.259 41.2851 74.8094 44.0665 77.5979C46.848 80.3863 50.3936 82.2877 54.2554 83.0616C58.1171 83.8356 62.1216 83.4474 65.7628 81.9461C69.4039 80.4448 72.5184 77.8979 74.7125 74.6271C76.9065 71.3563 78.0818 67.5085 78.0897 63.57C78.0818 58.2911 75.9819 53.2304 72.25 49.4967C68.5182 45.763 63.4586 43.6606 58.1797 43.65V43.61Z" fill="#653CAD"/>
<path d="M58.1798 108.83C54.0383 108.833 49.9688 107.747 46.3798 105.68L27.5998 94.84C24.0168 92.7654 21.0411 89.7867 18.9703 86.2015C16.8996 82.6162 15.8063 78.5502 15.7998 74.41V52.72C15.8063 48.5797 16.8996 44.5137 18.9703 40.9285C21.0411 37.3433 24.0168 34.3645 27.5998 32.29L46.3798 21.45C49.9682 19.3863 54.0353 18.3003 58.1748 18.3003C62.3143 18.3003 66.3814 19.3863 69.9698 21.45L88.7498 32.29C92.3328 34.3645 95.3085 37.3433 97.3793 40.9285C99.45 44.5137 100.543 48.5797 100.55 52.72V74.41C100.543 78.5502 99.45 82.6162 97.3793 86.2015C95.3085 89.7867 92.3328 92.7654 88.7498 94.84L69.9998 105.68C66.4051 107.751 62.3282 108.837 58.1798 108.83ZM58.1798 25.43C55.3089 25.4345 52.489 26.1895 49.9998 27.62L31.1598 38.47C28.6617 39.9181 26.587 41.9961 25.1429 44.4965C23.6988 46.997 22.9357 49.8325 22.9298 52.72V74.41C22.9357 77.2975 23.6988 80.1329 25.1429 82.6334C26.587 85.1339 28.6617 87.2118 31.1598 88.66L49.9998 99.51C52.5037 100.95 55.3415 101.707 58.2298 101.707C61.1181 101.707 63.9559 100.95 66.4598 99.51L85.1898 88.66C87.6879 87.2118 89.7626 85.1339 91.2067 82.6334C92.6508 80.1329 93.4139 77.2975 93.4198 74.41V52.72C93.4139 49.8325 92.6508 46.997 91.2067 44.4965C89.7626 41.9961 87.6879 39.9181 85.1898 38.47L66.4098 27.62C63.9048 26.1837 61.0673 25.4286 58.1798 25.43Z" fill="#653CAD"/>
<path d="M58.5 127.78C54.3585 127.783 50.289 126.697 46.7 124.63L11.79 104.47C8.2096 102.396 5.23632 99.4183 3.16735 95.8349C1.09839 92.2515 0.00621477 88.1878 0 84.05L0 43.73C0.00722102 39.5924 1.09982 35.5291 3.16868 31.9459C5.23755 28.3626 8.21028 25.3849 11.79 23.31L46.7 3.14998C50.2884 1.08635 54.3555 0.000305176 58.495 0.000305176C62.6345 0.000305176 66.7016 1.08635 70.29 3.14998L105.21 23.31C108.79 25.3849 111.762 28.3626 113.831 31.9459C115.9 35.5291 116.993 39.5924 117 43.73V84.05C116.993 88.1876 115.9 92.2509 113.831 95.8341C111.762 99.4173 108.79 102.395 105.21 104.47L70.29 124.63C66.7052 126.698 62.6386 127.785 58.5 127.78ZM58.5 7.12998C55.6108 7.12603 52.7718 7.88494 50.27 9.32998L15.36 29.48C12.8605 30.9266 10.7847 33.0042 9.34042 35.505C7.8961 38.0058 7.13387 40.8421 7.13 43.73V84.05C7.13387 86.9379 7.8961 89.7742 9.34042 92.275C10.7847 94.7758 12.8605 96.8534 15.36 98.3L50.27 118.46C52.7739 119.9 55.6117 120.657 58.5 120.657C61.3883 120.657 64.2261 119.9 66.73 118.46L101.64 98.3C104.139 96.8534 106.215 94.7758 107.66 92.275C109.104 89.7742 109.866 86.9379 109.87 84.05V43.73C109.866 40.8421 109.104 38.0058 107.66 35.505C106.215 33.0042 104.139 30.9266 101.64 29.48L66.73 9.32998C64.2278 7.88582 61.389 7.12698 58.5 7.12998Z" fill="#653CAD"/>
</g>
<defs>
<clipPath id="clip0_1459_3829">
<rect width="513.25" height="127.78" fill="white"/>
</clipPath>
</defs>
</svg>
