<svg width="22" height="23" viewBox="0 0 22 23" fill="none" xmlns="http://www.w3.org/2000/svg">
<path d="M12.4145 6.99998C12.4145 6.73823 12.5171 6.48691 12.7003 6.29998L12.7103 6.28998L16.4703 2.52998C15.3592 2.02714 14.1211 1.8749 12.9212 2.09352C11.7213 2.31215 10.6165 2.89127 9.75406 3.7537C8.89163 4.61614 8.31251 5.72092 8.09389 6.92083C7.87526 8.12075 8.02751 9.35879 8.53034 10.47L1.62034 17.38C1.22252 17.7778 0.999023 18.3174 0.999023 18.88C0.999023 19.4426 1.22252 19.9822 1.62034 20.38C2.01817 20.7778 2.55773 21.0013 3.12034 21.0013C3.68295 21.0013 4.22252 20.7778 4.62034 20.38L11.5303 13.47C12.6415 13.9728 13.8796 14.1251 15.0795 13.9064C16.2794 13.6878 17.3842 13.1087 18.2466 12.2463C19.1091 11.3838 19.6882 10.279 19.9068 9.07913C20.1254 7.87921 19.9732 6.64117 19.4703 5.52998L15.7003 9.29998C15.5134 9.48321 15.2621 9.58584 15.0003 9.58584C14.7386 9.58584 14.4873 9.48321 14.3003 9.29998L12.7003 7.69998C12.5171 7.51305 12.4145 7.26173 12.4145 6.99998Z" stroke="#857F72" stroke-width="2" stroke-linecap="round" stroke-linejoin="round"/>
</svg>
